<mxfile host="app.diagrams.net" modified="2023-08-29T09:08:05.328Z" agent="Mozilla/5.0 (Macintosh; Intel Mac OS X 10_15_7) AppleWebKit/537.36 (KHTML, like Gecko) Chrome/116.0.0.0 Safari/537.36" etag="ZFKToHXeEIUu9N_Iup5X" version="21.6.9" type="device">
  <diagram name="Page-1" id="r9AfVufj3C5dggXIzybs">
    <mxGraphModel dx="1026" dy="569" grid="1" gridSize="10" guides="1" tooltips="1" connect="1" arrows="1" fold="1" page="1" pageScale="1" pageWidth="827" pageHeight="1169" math="0" shadow="0">
      <root>
        <mxCell id="0" />
        <mxCell id="1" parent="0" />
        <mxCell id="yo8zxVHS-Ab1_4Zdhx0g-3" value="" style="edgeStyle=orthogonalEdgeStyle;rounded=0;orthogonalLoop=1;jettySize=auto;html=1;" edge="1" parent="1" source="yo8zxVHS-Ab1_4Zdhx0g-1" target="yo8zxVHS-Ab1_4Zdhx0g-2">
          <mxGeometry relative="1" as="geometry" />
        </mxCell>
        <mxCell id="yo8zxVHS-Ab1_4Zdhx0g-1" value="Input et år" style="rounded=0;whiteSpace=wrap;html=1;" vertex="1" parent="1">
          <mxGeometry x="330" y="80" width="120" height="60" as="geometry" />
        </mxCell>
        <mxCell id="yo8zxVHS-Ab1_4Zdhx0g-5" value="" style="edgeStyle=orthogonalEdgeStyle;rounded=0;orthogonalLoop=1;jettySize=auto;html=1;" edge="1" parent="1" source="yo8zxVHS-Ab1_4Zdhx0g-2" target="yo8zxVHS-Ab1_4Zdhx0g-4">
          <mxGeometry relative="1" as="geometry" />
        </mxCell>
        <mxCell id="yo8zxVHS-Ab1_4Zdhx0g-2" value="sjekke om dette året er deleig med fire" style="whiteSpace=wrap;html=1;rounded=0;" vertex="1" parent="1">
          <mxGeometry x="330" y="220" width="120" height="60" as="geometry" />
        </mxCell>
        <mxCell id="yo8zxVHS-Ab1_4Zdhx0g-7" value="" style="edgeStyle=orthogonalEdgeStyle;rounded=0;orthogonalLoop=1;jettySize=auto;html=1;" edge="1" parent="1" source="yo8zxVHS-Ab1_4Zdhx0g-4" target="yo8zxVHS-Ab1_4Zdhx0g-6">
          <mxGeometry relative="1" as="geometry" />
        </mxCell>
        <mxCell id="yo8zxVHS-Ab1_4Zdhx0g-4" value="bruke modulo (%) og hvis dette blir null er det sant" style="whiteSpace=wrap;html=1;rounded=0;" vertex="1" parent="1">
          <mxGeometry x="530" y="220" width="120" height="60" as="geometry" />
        </mxCell>
        <mxCell id="yo8zxVHS-Ab1_4Zdhx0g-11" value="" style="edgeStyle=orthogonalEdgeStyle;rounded=0;orthogonalLoop=1;jettySize=auto;html=1;" edge="1" parent="1" source="yo8zxVHS-Ab1_4Zdhx0g-6" target="yo8zxVHS-Ab1_4Zdhx0g-10">
          <mxGeometry relative="1" as="geometry" />
        </mxCell>
        <mxCell id="yo8zxVHS-Ab1_4Zdhx0g-13" value="" style="edgeStyle=orthogonalEdgeStyle;rounded=0;orthogonalLoop=1;jettySize=auto;html=1;" edge="1" parent="1" source="yo8zxVHS-Ab1_4Zdhx0g-6" target="yo8zxVHS-Ab1_4Zdhx0g-12">
          <mxGeometry relative="1" as="geometry" />
        </mxCell>
        <mxCell id="yo8zxVHS-Ab1_4Zdhx0g-6" value="må også sjekke at året ikke er delelig med 100 med bruk av modulo og det kan ikke bli 0" style="whiteSpace=wrap;html=1;rounded=0;" vertex="1" parent="1">
          <mxGeometry x="410" y="360" width="140" height="80" as="geometry" />
        </mxCell>
        <mxCell id="yo8zxVHS-Ab1_4Zdhx0g-10" value="Hvis modulo ikke blir 0" style="whiteSpace=wrap;html=1;rounded=0;" vertex="1" parent="1">
          <mxGeometry x="580" y="500" width="120" height="60" as="geometry" />
        </mxCell>
        <mxCell id="yo8zxVHS-Ab1_4Zdhx0g-24" value="" style="edgeStyle=orthogonalEdgeStyle;rounded=0;orthogonalLoop=1;jettySize=auto;html=1;" edge="1" parent="1" source="yo8zxVHS-Ab1_4Zdhx0g-12" target="yo8zxVHS-Ab1_4Zdhx0g-23">
          <mxGeometry relative="1" as="geometry" />
        </mxCell>
        <mxCell id="yo8zxVHS-Ab1_4Zdhx0g-12" value="Hvis året får en modulo som er lik 0" style="whiteSpace=wrap;html=1;rounded=0;" vertex="1" parent="1">
          <mxGeometry x="200" y="400" width="120" height="60" as="geometry" />
        </mxCell>
        <mxCell id="yo8zxVHS-Ab1_4Zdhx0g-14" value="året er ikke et skuddår" style="rounded=0;whiteSpace=wrap;html=1;" vertex="1" parent="1">
          <mxGeometry x="200" y="750" width="120" height="60" as="geometry" />
        </mxCell>
        <mxCell id="yo8zxVHS-Ab1_4Zdhx0g-15" value="Året er et skuddår" style="rounded=0;whiteSpace=wrap;html=1;" vertex="1" parent="1">
          <mxGeometry x="580" y="750" width="120" height="60" as="geometry" />
        </mxCell>
        <mxCell id="yo8zxVHS-Ab1_4Zdhx0g-16" value="" style="endArrow=none;html=1;rounded=0;exitX=0;exitY=0.5;exitDx=0;exitDy=0;entryX=0;entryY=0.5;entryDx=0;entryDy=0;" edge="1" parent="1" source="yo8zxVHS-Ab1_4Zdhx0g-14" target="yo8zxVHS-Ab1_4Zdhx0g-2">
          <mxGeometry width="50" height="50" relative="1" as="geometry">
            <mxPoint x="110" y="610" as="sourcePoint" />
            <mxPoint x="100" y="230" as="targetPoint" />
            <Array as="points">
              <mxPoint x="80" y="780" />
              <mxPoint x="80" y="250" />
            </Array>
          </mxGeometry>
        </mxCell>
        <mxCell id="yo8zxVHS-Ab1_4Zdhx0g-18" value="" style="endArrow=none;html=1;rounded=0;exitX=0.5;exitY=0;exitDx=0;exitDy=0;entryX=0.5;entryY=1;entryDx=0;entryDy=0;" edge="1" parent="1" source="yo8zxVHS-Ab1_4Zdhx0g-15" target="yo8zxVHS-Ab1_4Zdhx0g-10">
          <mxGeometry width="50" height="50" relative="1" as="geometry">
            <mxPoint x="390" y="430" as="sourcePoint" />
            <mxPoint x="440" y="380" as="targetPoint" />
            <Array as="points">
              <mxPoint x="640" y="600" />
            </Array>
          </mxGeometry>
        </mxCell>
        <mxCell id="yo8zxVHS-Ab1_4Zdhx0g-26" value="" style="edgeStyle=orthogonalEdgeStyle;rounded=0;orthogonalLoop=1;jettySize=auto;html=1;" edge="1" parent="1" source="yo8zxVHS-Ab1_4Zdhx0g-23" target="yo8zxVHS-Ab1_4Zdhx0g-25">
          <mxGeometry relative="1" as="geometry" />
        </mxCell>
        <mxCell id="yo8zxVHS-Ab1_4Zdhx0g-29" value="" style="edgeStyle=orthogonalEdgeStyle;rounded=0;orthogonalLoop=1;jettySize=auto;html=1;" edge="1" parent="1" source="yo8zxVHS-Ab1_4Zdhx0g-23" target="yo8zxVHS-Ab1_4Zdhx0g-28">
          <mxGeometry relative="1" as="geometry" />
        </mxCell>
        <mxCell id="yo8zxVHS-Ab1_4Zdhx0g-23" value="sjekk om året er i 400, 4000 eller 40000" style="whiteSpace=wrap;html=1;rounded=0;" vertex="1" parent="1">
          <mxGeometry x="320" y="540" width="120" height="60" as="geometry" />
        </mxCell>
        <mxCell id="yo8zxVHS-Ab1_4Zdhx0g-25" value="hvis det ikke er et av disse årene" style="whiteSpace=wrap;html=1;rounded=0;" vertex="1" parent="1">
          <mxGeometry x="120" y="540" width="120" height="60" as="geometry" />
        </mxCell>
        <mxCell id="yo8zxVHS-Ab1_4Zdhx0g-27" value="" style="endArrow=none;html=1;rounded=0;entryX=0.5;entryY=0;entryDx=0;entryDy=0;exitX=0.5;exitY=1;exitDx=0;exitDy=0;" edge="1" parent="1" source="yo8zxVHS-Ab1_4Zdhx0g-25" target="yo8zxVHS-Ab1_4Zdhx0g-14">
          <mxGeometry width="50" height="50" relative="1" as="geometry">
            <mxPoint x="390" y="530" as="sourcePoint" />
            <mxPoint x="440" y="480" as="targetPoint" />
            <Array as="points">
              <mxPoint x="180" y="680" />
              <mxPoint x="260" y="680" />
            </Array>
          </mxGeometry>
        </mxCell>
        <mxCell id="yo8zxVHS-Ab1_4Zdhx0g-28" value="hvis det er et av disse årene" style="whiteSpace=wrap;html=1;rounded=0;" vertex="1" parent="1">
          <mxGeometry x="370" y="670" width="120" height="60" as="geometry" />
        </mxCell>
        <mxCell id="yo8zxVHS-Ab1_4Zdhx0g-30" value="" style="endArrow=none;html=1;rounded=0;exitX=1;exitY=0.5;exitDx=0;exitDy=0;entryX=0;entryY=0.5;entryDx=0;entryDy=0;" edge="1" parent="1" source="yo8zxVHS-Ab1_4Zdhx0g-28" target="yo8zxVHS-Ab1_4Zdhx0g-15">
          <mxGeometry width="50" height="50" relative="1" as="geometry">
            <mxPoint x="390" y="530" as="sourcePoint" />
            <mxPoint x="440" y="480" as="targetPoint" />
          </mxGeometry>
        </mxCell>
      </root>
    </mxGraphModel>
  </diagram>
</mxfile>
